# xmcd CD database file
# Copyright (C) 1995-1998 Ti Kan
#
# Track frame offsets:
#	183
#	16213
#	33248
#	50278
#	65753
#	85103
#	100740
#	114240
#	126533
#	139020
#
# Disc length: 2144 seconds
#
# Revision: 1
# Processed by: cddbd v1.5.1PL0 Copyright (c) Steve Scherf et al.
# Submitted via: CDex 1.30Release
#
DISCID=7e085e0a
DTITLE=Paul Mac Bonvin - Rimrock
DYEAR=1993
DGENRE=Country
TTITLE0=Too Late To Cross
TTITLE1=Le Boulevard
TTITLE2=Blue Moon
TTITLE3=Main Du Ton
TTITLE4=Rimrock
TTITLE5=La Route Est Longue
TTITLE6=Lucky 13
TTITLE7=Might Seem Like A Loser
TTITLE8=Pas Plus Sage
TTITLE9=Impasse
EXTD=YEAR: 1993 ID3G:   2
EXTT0=
EXTT1=
EXTT2=
EXTT3=
EXTT4=
EXTT5=
EXTT6=
EXTT7=
EXTT8=
EXTT9=
PLAYORDER=
